<svg height="464pt" viewBox="-56 0 464 464.03428" width="464pt" xmlns="http://www.w3.org/2000/svg"><path d="m352.015625 176.035156c.019531-91.996094-70.8125-168.484375-162.539063-175.519531-91.722656-7.035156-173.394531 57.753906-187.40625 148.675781-14.011718 90.921875 44.359376 177.296875 133.945313 198.203125l40 116.640625 40-116.640625c79.585937-18.671875 135.886719-89.613281 136-171.359375zm0 0" fill="#005e9c"/><path d="m320.015625 175.691406c0 79.527344-64.46875 144-144 144-79.527344 0-144-64.472656-144-144 0-79.53125 64.472656-144 144-144 79.53125 0 144 64.46875 144 144zm0 0" fill="#168fba"/><path d="m128.015625 144.035156h96v112c0 4.417969-3.582031 8-8 8h-80c-4.417969 0-8-3.582031-8-8zm0 0" fill="#fecf2c"/><path d="m136.015625 80.035156h80c4.417969 0 8 3.582032 8 8v56h-96v-56c0-4.417968 3.582031-8 8-8zm0 0" fill="#de722a"/><path d="m264.015625 232.035156h-16v-68.6875l-29.65625-29.65625 11.3125-11.3125 32 32c1.5 1.5 2.34375 3.535156 2.34375 5.65625zm0 0" fill="#494342"/><path d="m224.015625 176.035156h32v16h-32zm0 0" fill="#494342"/><path d="m152.015625 104.035156h48v16h-48zm0 0" fill="#0f71c7"/><g fill="#de722a"><path d="m152.015625 184.035156h16v16h-16zm0 0"/><path d="m184.015625 184.035156h16v16h-16zm0 0"/></g></svg>